<?xml version="1.0" encoding="UTF-8"?>
<svg width="104px" height="88px" viewBox="0 0 104 88" version="1.1" xmlns="http://www.w3.org/2000/svg" xmlns:xlink="http://www.w3.org/1999/xlink" xmlns:sketch="http://www.bohemiancoding.com/sketch/ns">
    <!-- Generator: Sketch 3.3 (11970) - http://www.bohemiancoding.com/sketch -->
    <title>Gradient logo Copy</title>
    <desc>Created with Sketch.</desc>
    <defs>
        <path d="M86,70 L89.0024384,70 C97.2763714,70 104,63.2863861 104,55.0047238 L104,14.9952762 C104,6.71189427 97.285363,0 89.0024384,0 L14.9975616,0 C6.72362857,0 0,6.71361386 0,14.9952762 L0,55.0047238 C0,63.2881057 6.71463703,70 14.9975616,70 L61,70 L74.6880368,83.6880368 C80.9314736,89.9314736 86,87.8372532 86,79.0015572 L86,70 Z" id="path-1"></path>
        <linearGradient x1="91.6992188%" y1="19.2842371%" x2="41.1245493%" y2="100%" id="linearGradient-3">
            <stop stop-color="#C2C2C2" offset="0%"></stop>
            <stop stop-color="#4C4C4C" offset="100%"></stop>
        </linearGradient>
    </defs>
    <g id="Host-UI" stroke="none" stroke-width="1" fill="none" fill-rule="evenodd" sketch:type="MSPage">
        <g id="Desktop-HD" sketch:type="MSArtboardGroup" transform="translate(-224.000000, -592.000000)">
            <g id="Gradient-logo-Copy" sketch:type="MSLayerGroup" transform="translate(224.000000, 592.000000)">
                <mask id="mask-2" sketch:name="Mask" fill="white">
                    <use xlink:href="#path-1"></use>
                </mask>
                <use id="Mask" stroke-opacity="0.570652174" stroke="#000000" stroke-width="5" fill="#FFFFFF" sketch:type="MSShapeGroup" xlink:href="#path-1"></use>
                <path d="M-15,39.9065046 C-15,35.4905898 -12.2745622,34.2342686 -8.62330256,36.7153402 C-8.62330256,36.7153402 10.1923077,57.821568 50.5,31.9107836 C90.8076923,5.99999919 109.623303,27.1062269 109.623303,27.1062269 C113.145055,29.7597103 116,35.4828943 116,39.9065047 L116,79.0042788 C116,83.4201937 112.428126,87 108.002562,87 L-7.00256155,87 C-11.4194248,87 -15,83.4278893 -15,79.0042788 L-15,39.9065046 Z" id="Rectangle-15-Copy" fill="url(#linearGradient-3)" sketch:type="MSShapeGroup" mask="url(#mask-2)"></path>
            </g>
        </g>
    </g>
</svg>