<?xml version="1.0" encoding="UTF-8"?>
<svg width="96px" height="33px" viewBox="0 0 96 33" version="1.1" xmlns="http://www.w3.org/2000/svg" xmlns:xlink="http://www.w3.org/1999/xlink" xmlns:sketch="http://www.bohemiancoding.com/sketch/ns">
    <!-- Generator: Sketch 3.3 (11970) - http://www.bohemiancoding.com/sketch -->
    <title>participate + .live</title>
    <desc>Created with Sketch.</desc>
    <defs></defs>
    <g id="Host-UI" stroke="none" stroke-width="1" fill="none" fill-rule="evenodd" sketch:type="MSPage">
        <g id="Desktop-HD" sketch:type="MSArtboardGroup" transform="translate(-151.000000, -35.000000)" fill="#FFFFFF">
            <g id="participate-+-.live" sketch:type="MSLayerGroup" transform="translate(151.000000, 35.000000)">
                <path d="M3.02,6.6 C3.6333364,5.5466614 4.5666604,5.02 5.82,5.02 C7.020006,5.02 8.0466624,5.4733288 8.9,6.38 C9.8066712,7.3400048 10.26,8.5933256 10.26,10.14 C10.26,11.7000078 9.8000046,12.9599952 8.88,13.92 C8.0266624,14.8266712 7.0066726,15.28 5.82,15.28 C4.6333274,15.28 3.7666694,14.9266702 3.22,14.22 L3.22,19.74 L0.86,19.74 L0.86,5.28 L2.8,5.28 L3.02,6.6 Z M5.4,13.14 C5.6800014,13.14 5.9699985,13.0800006 6.27,12.96 C6.5700015,12.8399994 6.8399988,12.6533346 7.08,12.4 C7.613336,11.8399972 7.88,11.0900047 7.88,10.15 C7.88,9.2099953 7.6500023,8.473336 7.19,7.94 C6.7299977,7.406664 6.1700033,7.14 5.51,7.14 C4.8499967,7.14 4.3100021,7.3299981 3.89,7.71 C3.4699979,8.0900019 3.2466668,8.6333298 3.22,9.34 L3.22,11.08 C3.22,11.7066698 3.4399978,12.2133314 3.88,12.6 C4.2933354,12.9600018 4.799997,13.14 5.4,13.14 L5.4,13.14 Z M15.3433333,9.32 C16.1166705,9.32 17.0099949,9.4466654 18.0233333,9.7 L18.0233333,8.74 C18.0233333,8.0599966 17.886668,7.5566683 17.6133333,7.23 C17.3399986,6.9033317 16.8933364,6.74 16.2733333,6.74 C15.6533302,6.74 15.1766683,6.8633321 14.8433333,7.11 C14.5099983,7.3566679 14.3433333,7.7066644 14.3433333,8.16 L11.7633333,8.16 C11.7633333,7.0533278 12.1533294,6.2533358 12.9333333,5.76 C13.7133372,5.2666642 14.8033263,5.02 16.2033333,5.02 C18.2033433,5.02 19.4966637,5.719993 20.0833333,7.12 C20.2833343,7.6000024 20.3833333,8.1666634 20.3833333,8.82 L20.3833333,15 L18.3233333,15 L18.1433333,13.7 C17.5166635,14.7533386 16.5566731,15.28 15.2633333,15.28 C14.0099937,15.28 13.0366701,14.9733364 12.3433333,14.36 C11.7033301,13.7733304 11.3833333,13.0300045 11.3833333,12.13 C11.3833333,11.2299955 11.7366631,10.5366691 12.4433333,10.05 C13.1500035,9.5633309 14.1166605,9.32 15.3433333,9.32 L15.3433333,9.32 Z M18.0233333,11.2 C17.2366627,10.9866656 16.5033367,10.88 15.8233333,10.88 C14.5433269,10.88 13.9033333,11.3066624 13.9033333,12.16 C13.9033333,12.5200018 14.0499985,12.8299987 14.3433333,13.09 C14.6366681,13.3500013 15.1066634,13.48 15.7533333,13.48 C16.4000032,13.48 16.9333312,13.2633355 17.3533333,12.83 C17.7733354,12.3966645 17.9966665,11.8533366 18.0233333,11.2 L18.0233333,11.2 Z M25.2666666,7.2 C25.8533362,5.799993 26.7333274,5.1 27.9066666,5.1 C28.1333344,5.1 28.4199982,5.1466662 28.7666666,5.24 L28.7266666,7.6 C28.3533314,7.5199996 27.9866684,7.48 27.6266666,7.48 C26.0533254,7.48 25.2666666,8.5666558 25.2666666,10.74 L25.2666666,15 L22.9066666,15 L22.9066666,5.26 L25.2666666,5.26 L25.2666666,7.2 Z M35.7899999,14.76 C34.9099955,15.1066684 34.2166691,15.28 33.7099999,15.28 C33.2033307,15.28 32.7600018,15.2200006 32.3799999,15.1 C31.999998,14.9799994 31.6633347,14.8000012 31.3699999,14.56 C30.7566635,14.0133306 30.4499999,13.2600048 30.4499999,12.3 L30.4499999,6.86 L29.0899999,6.86 L29.0899999,5.28 L30.4499999,5.28 L30.4499999,2.72 L32.8099999,2.72 L32.8099999,5.28 L35.4499999,5.28 L35.4499999,6.86 L32.8099999,6.86 L32.8099999,12.22 C32.8099999,13.020004 33.1899961,13.42 33.9499999,13.42 C34.3366685,13.42 34.8366635,13.3133344 35.4499999,13.1 L35.7899999,14.76 Z M37.4933333,5.26 L39.8533333,5.26 L39.8533333,15 L37.4933333,15 L37.4933333,5.26 Z M37.2133333,2.14 C37.2133333,1.7133312 37.3399987,1.3766679 37.5933333,1.13 C37.8466679,0.8833321 38.2066643,0.76 38.6733333,0.76 C39.1266689,0.76 39.483332,0.8833321 39.7433333,1.13 C40.0033346,1.3766679 40.1333333,1.7133312 40.1333333,2.14 C40.1333333,2.5666688 40.0033346,2.9033321 39.7433333,3.15 C39.483332,3.3966679 39.1266689,3.52 38.6733333,3.52 C38.2066643,3.52 37.8466679,3.3966679 37.5933333,3.15 C37.3399987,2.9033321 37.2133333,2.5666688 37.2133333,2.14 L37.2133333,2.14 Z M46.6366666,5.02 C47.250003,5.02 47.7999975,5.1233323 48.2866666,5.33 C48.7733357,5.5366677 49.1833316,5.806665 49.5166666,6.14 C50.1833366,6.7800032 50.576666,7.5866618 50.6966666,8.56 L48.3166666,8.62 C48.2099994,8.1933312 48.0133347,7.8400014 47.7266666,7.56 C47.4399985,7.2799986 47.1100018,7.14 46.7366666,7.14 C46.3633314,7.14 46.0433346,7.1966661 45.7766666,7.31 C45.5099986,7.4233339 45.2766676,7.5999988 45.0766666,7.84 C44.623331,8.4000028 44.3966666,9.1733284 44.3966666,10.16 C44.3966666,11.1466716 44.6099978,11.8899975 45.0366666,12.39 C45.4633354,12.8900025 45.9799969,13.14 46.5866666,13.14 C47.1933363,13.14 47.6333319,12.9966681 47.9066666,12.71 C48.1800013,12.4233319 48.3166666,12.0333358 48.3166666,11.54 L50.6966666,11.54 C50.6966666,12.606672 50.3433368,13.4933298 49.6366666,14.2 C48.916663,14.9200036 47.9100064,15.28 46.6166666,15.28 C45.3366602,15.28 44.2633376,14.813338 43.3966666,13.88 C42.476662,12.879995 42.0166666,11.6333408 42.0166666,10.14 C42.0166666,8.5666588 42.476662,7.3066714 43.3966666,6.36 C44.2633376,5.4666622 45.3433268,5.02 46.6366666,5.02 L46.6366666,5.02 Z M52.8199999,5.26 L55.1799999,5.26 L55.1799999,15 L52.8199999,15 L52.8199999,5.26 Z M52.5399999,2.14 C52.5399999,1.7133312 52.6666653,1.3766679 52.9199999,1.13 C53.1733345,0.8833321 53.5333309,0.76 53.9999999,0.76 C54.4533355,0.76 54.8099986,0.8833321 55.0699999,1.13 C55.3300012,1.3766679 55.4599999,1.7133312 55.4599999,2.14 C55.4599999,2.5666688 55.3300012,2.9033321 55.0699999,3.15 C54.8099986,3.3966679 54.4533355,3.52 53.9999999,3.52 C53.5333309,3.52 53.1733345,3.3966679 52.9199999,3.15 C52.6666653,2.9033321 52.5399999,2.5666688 52.5399999,2.14 L52.5399999,2.14 Z M60.4233332,6.6 C61.0366696,5.5466614 61.9699936,5.02 63.2233332,5.02 C64.4233392,5.02 65.4499956,5.4733288 66.3033332,6.38 C67.2100044,7.3400048 67.6633332,8.5933256 67.6633332,10.14 C67.6633332,11.7000078 67.2033378,12.9599952 66.2833332,13.92 C65.4299956,14.8266712 64.4100058,15.28 63.2233332,15.28 C62.0366606,15.28 61.1700026,14.9266702 60.6233332,14.22 L60.6233332,19.74 L58.2633332,19.74 L58.2633332,5.28 L60.2033332,5.28 L60.4233332,6.6 Z M62.8033332,13.14 C63.0833346,13.14 63.3733317,13.0800006 63.6733332,12.96 C63.9733347,12.8399994 64.243332,12.6533346 64.4833332,12.4 C65.0166692,11.8399972 65.2833332,11.0900047 65.2833332,10.15 C65.2833332,9.2099953 65.0533355,8.473336 64.5933332,7.94 C64.1333309,7.406664 63.5733365,7.14 62.9133332,7.14 C62.2533299,7.14 61.7133353,7.3299981 61.2933332,7.71 C60.8733311,8.0900019 60.65,8.6333298 60.6233332,9.34 L60.6233332,11.08 C60.6233332,11.7066698 60.843331,12.2133314 61.2833332,12.6 C61.6966686,12.9600018 62.2033302,13.14 62.8033332,13.14 L62.8033332,13.14 Z M72.7466665,9.32 C73.5200037,9.32 74.4133281,9.4466654 75.4266665,9.7 L75.4266665,8.74 C75.4266665,8.0599966 75.2900012,7.5566683 75.0166665,7.23 C74.7433318,6.9033317 74.2966696,6.74 73.6766665,6.74 C73.0566634,6.74 72.5800015,6.8633321 72.2466665,7.11 C71.9133315,7.3566679 71.7466665,7.7066644 71.7466665,8.16 L69.1666665,8.16 C69.1666665,7.0533278 69.5566626,6.2533358 70.3366665,5.76 C71.1166704,5.2666642 72.2066595,5.02 73.6066665,5.02 C75.6066765,5.02 76.8999969,5.719993 77.4866665,7.12 C77.6866675,7.6000024 77.7866665,8.1666634 77.7866665,8.82 L77.7866665,15 L75.7266665,15 L75.5466665,13.7 C74.9199967,14.7533386 73.9600063,15.28 72.6666665,15.28 C71.4133269,15.28 70.4400033,14.9733364 69.7466665,14.36 C69.1066633,13.7733304 68.7866665,13.0300045 68.7866665,12.13 C68.7866665,11.2299955 69.1399963,10.5366691 69.8466665,10.05 C70.5533367,9.5633309 71.5199937,9.32 72.7466665,9.32 L72.7466665,9.32 Z M75.4266665,11.2 C74.6399959,10.9866656 73.9066699,10.88 73.2266665,10.88 C71.9466601,10.88 71.3066665,11.3066624 71.3066665,12.16 C71.3066665,12.5200018 71.4533317,12.8299987 71.7466665,13.09 C72.0400013,13.3500013 72.5099966,13.48 73.1566665,13.48 C73.8033364,13.48 74.3366644,13.2633355 74.7566665,12.83 C75.1766686,12.3966645 75.3999997,11.8533366 75.4266665,11.2 L75.4266665,11.2 Z M85.7899998,14.76 C84.9099954,15.1066684 84.216669,15.28 83.7099998,15.28 C83.2033306,15.28 82.7600017,15.2200006 82.3799998,15.1 C81.9999979,14.9799994 81.6633346,14.8000012 81.3699998,14.56 C80.7566634,14.0133306 80.4499998,13.2600048 80.4499998,12.3 L80.4499998,6.86 L79.0899998,6.86 L79.0899998,5.28 L80.4499998,5.28 L80.4499998,2.72 L82.8099998,2.72 L82.8099998,5.28 L85.4499998,5.28 L85.4499998,6.86 L82.8099998,6.86 L82.8099998,12.22 C82.8099998,13.020004 83.189996,13.42 83.9499998,13.42 C84.3366684,13.42 84.8366634,13.3133344 85.4499998,13.1 L85.7899998,14.76 Z M94.8233331,7.92 C94.9900006,8.4800028 95.0733331,8.993331 95.0733331,9.46 C95.0733331,9.926669 95.0466667,10.3466648 94.9933331,10.72 L88.7133331,10.72 C88.7399999,11.5066706 88.9333313,12.1466642 89.2933331,12.64 C89.6533349,13.1333358 90.1999961,13.38 90.9333331,13.38 C91.9066713,13.38 92.4866655,12.9533376 92.6733331,12.1 L95.0533331,12.1 C94.8933323,13.0733382 94.4466701,13.8399972 93.7133331,14.4 C92.9533293,14.9866696 92.0266719,15.28 90.9333331,15.28 C89.6533267,15.28 88.5800041,14.813338 87.7133331,13.88 C86.8199953,12.9066618 86.3733331,11.6600076 86.3733331,10.14 C86.3733331,8.5799922 86.8199953,7.3266714 87.7133331,6.38 C88.5666707,5.4733288 89.6399933,5.02 90.9333331,5.02 C92.2800065,5.02 93.3266627,5.4933286 94.0733331,6.44 C94.4066681,6.8666688 94.6566656,7.3599972 94.8233331,7.92 L94.8233331,7.92 Z M90.9533331,6.9 C90.2866631,6.9 89.7666683,7.1166645 89.3933331,7.55 C89.0199979,7.9833355 88.8000001,8.5399966 88.7333331,9.22 L92.8733331,9.22 C92.8733331,8.1666614 92.5400031,7.4600018 91.8733331,7.1 C91.6199985,6.966666 91.3133349,6.9 90.9533331,6.9 L90.9533331,6.9 Z" id="participate" sketch:type="MSShapeGroup"></path>
                <path d="M61.9573437,31.85 C61.7373426,31.6299989 61.6273437,31.3633349 61.6273437,31.05 C61.6273437,30.7366651 61.7373426,30.4700011 61.9573437,30.25 C62.1773448,30.0299989 62.457342,29.92 62.7973437,29.92 C63.1373454,29.92 63.4206759,30.0299989 63.6473437,30.25 C63.8740115,30.4700011 63.9873437,30.7366651 63.9873437,31.05 C63.9873437,31.3633349 63.8740115,31.6299989 63.6473437,31.85 C63.4206759,32.0700011 63.1373454,32.18 62.7973437,32.18 C62.457342,32.18 62.1773448,32.0700011 61.9573437,31.85 L61.9573437,31.85 Z M66.6273437,18.38 L68.2073437,18.38 L68.2073437,32 L66.6273437,32 L66.6273437,18.38 Z M72.3273437,22.42 L73.9073437,22.42 L73.9073437,32 L72.3273437,32 L72.3273437,22.42 Z M72.3573437,19.91 C72.1773428,19.7299991 72.0873437,19.4900015 72.0873437,19.19 C72.0873437,18.8899985 72.1773428,18.6500009 72.3573437,18.47 C72.5373446,18.2899991 72.7873421,18.2 73.1073437,18.2 C73.4273453,18.2 73.6840094,18.2899991 73.8773437,18.47 C74.070678,18.6500009 74.1673437,18.8899985 74.1673437,19.19 C74.1673437,19.4900015 74.070678,19.7299991 73.8773437,19.91 C73.6840094,20.0900009 73.4273453,20.18 73.1073437,20.18 C72.7873421,20.18 72.5373446,20.0900009 72.3573437,19.91 L72.3573437,19.91 Z M78.3273437,22.44 L81.2073437,30.34 L84.1073437,22.44 L85.8873437,22.44 L82.0873437,32 L80.3473437,32 L76.5473437,22.44 L78.3273437,22.44 Z M91.5673437,30.94 C92.8873503,30.94 93.6406761,30.3600058 93.8273437,29.2 L95.4473437,29.2 C95.3006763,30.1600048 94.8773472,30.9033307 94.1773437,31.43 C93.4773402,31.9566693 92.6073489,32.22 91.5673437,32.22 C90.2873373,32.22 89.2473477,31.7633379 88.4473437,30.85 C87.6473397,29.9366621 87.2473437,28.7200076 87.2473437,27.2 C87.2473437,25.6799924 87.650673,24.4666712 88.4573437,23.56 C89.2640144,22.6533288 90.337337,22.2 91.6773437,22.2 C93.0173504,22.2 94.0173404,22.7199948 94.6773437,23.76 C95.337347,24.8000052 95.5673447,26.0666592 95.3673437,27.56 L88.8273437,27.56 C88.8273437,28.5466716 89.0673413,29.3566635 89.5473437,29.99 C90.0273461,30.6233365 90.7006727,30.94 91.5673437,30.94 L91.5673437,30.94 Z M92.7273437,23.7 C92.4206755,23.5399992 92.0473459,23.46 91.6073437,23.46 C90.7940063,23.46 90.1506794,23.7366639 89.6773437,24.29 C89.204008,24.8433361 88.9273441,25.5333292 88.8473437,26.36 L93.9473437,26.36 C93.9473437,25.02666 93.5406811,24.1400022 92.7273437,23.7 L92.7273437,23.7 Z" id=".live" sketch:type="MSShapeGroup"></path>
            </g>
        </g>
    </g>
</svg>