<?xml version="1.0" encoding="UTF-8"?>
<svg width="435px" height="315px" viewBox="0 0 435 315" version="1.1" xmlns="http://www.w3.org/2000/svg" xmlns:xlink="http://www.w3.org/1999/xlink" xmlns:sketch="http://www.bohemiancoding.com/sketch/ns">
    <!-- Generator: Sketch 3.3 (11970) - http://www.bohemiancoding.com/sketch -->
    <title>Group</title>
    <desc>Created with Sketch.</desc>
    <defs></defs>
    <g id="Page-1" stroke="none" stroke-width="1" fill="none" fill-rule="evenodd" sketch:type="MSPage">
        <g id="Group" sketch:type="MSLayerGroup" transform="translate(3.000000, 3.000000)">
            <rect id="Rectangle-1" stroke="#D7D7D7" stroke-width="5" fill="#FFFFFF" sketch:type="MSShapeGroup" x="0" y="0" width="399" height="309" rx="8"></rect>
            <rect id="Rectangle-2" fill="#2180B7" sketch:type="MSShapeGroup" x="28" y="82" width="286" height="50" rx="8"></rect>
            <rect id="Rectangle-2-Copy" stroke="#FFFFFF" stroke-width="5" fill="#F17006" sketch:type="MSShapeGroup" x="28" y="152" width="399" height="50" rx="8"></rect>
            <rect id="Rectangle-2-Copy-2" fill="#76CE3B" sketch:type="MSShapeGroup" x="28" y="222" width="201" height="50" rx="8"></rect>
            <text id="Coca-cola" sketch:type="MSTextLayer" font-family="Karla" font-size="16" font-weight="bold" fill="#FFFFFF">
                <tspan x="47.1015625" y="182">Coca-cola</tspan>
            </text>
            <path d="M73.46,31.616 L75.748,39.504 L77.972,32.304 L79.252,32.304 L81.604,39.536 L84.036,31.616 L86.164,31.616 L82.596,42 L80.612,42 L78.66,36.144 L76.724,42 L74.74,42 L71.348,31.616 L73.46,31.616 Z M89.86,35.488 C90.393336,34.5066618 91.1719949,34.016 92.196,34.016 C93.2200051,34.016 93.9746642,34.3306635 94.46,34.96 C94.9453358,35.5893365 95.188,36.4213282 95.188,37.456 L95.188,42 L93.3,42 L93.3,37.456 C93.3,36.8799971 93.1613347,36.4453348 92.884,36.152 C92.6066653,35.8586652 92.2173358,35.712 91.716,35.712 C91.2146642,35.712 90.7853351,35.9359978 90.428,36.384 C90.0706649,36.8320022 89.8813334,37.5039955 89.86,38.4 L89.86,42 L87.972,42 L87.972,31.024 L89.86,31.024 L89.86,35.488 Z M100.5,37.456 C101.11867,37.456 101.833329,37.5573323 102.644,37.76 L102.644,36.992 C102.644,36.4479973 102.534668,36.0453346 102.316,35.784 C102.097332,35.5226654 101.740002,35.392 101.244,35.392 C100.747998,35.392 100.366668,35.4906657 100.1,35.688 C99.833332,35.8853343 99.7,36.1653315 99.7,36.528 L97.636,36.528 C97.636,35.6426622 97.9479969,35.0026686 98.572,34.608 C99.1960031,34.2133314 100.067994,34.016 101.188,34.016 C102.788008,34.016 103.822664,34.5759944 104.292,35.696 C104.452001,36.0800019 104.532,36.5333307 104.532,37.056 L104.532,42 L102.884,42 L102.74,40.96 C102.238664,41.8026709 101.470672,42.224 100.436,42.224 C99.4333283,42.224 98.6546694,41.9786691 98.1,41.488 C97.5879974,41.0186643 97.332,40.4240036 97.332,39.704 C97.332,38.9839964 97.6146638,38.4293353 98.18,38.04 C98.7453362,37.6506647 99.5186618,37.456 100.5,37.456 L100.5,37.456 Z M102.644,38.96 C102.014664,38.7893325 101.428003,38.704 100.884,38.704 C99.8599949,38.704 99.348,39.0453299 99.348,39.728 C99.348,40.0160014 99.4653322,40.263999 99.7,40.472 C99.9346678,40.680001 100.310664,40.784 100.828,40.784 C101.345336,40.784 101.771998,40.6106684 102.108,40.264 C102.444002,39.9173316 102.622667,39.4826693 102.644,38.96 L102.644,38.96 Z M111.668,41.808 C110.963996,42.0853347 110.409335,42.224 110.004,42.224 C109.598665,42.224 109.244002,42.1760005 108.94,42.08 C108.635998,41.9839995 108.366668,41.840001 108.132,41.648 C107.641331,41.2106645 107.396,40.6080038 107.396,39.84 L107.396,35.488 L106.308,35.488 L106.308,34.224 L107.396,34.224 L107.396,32.176 L109.284,32.176 L109.284,34.224 L111.396,34.224 L111.396,35.488 L109.284,35.488 L109.284,39.776 C109.284,40.4160032 109.587997,40.736 110.196,40.736 C110.505335,40.736 110.905331,40.6506675 111.396,40.48 L111.668,41.808 Z M117.812,34.208 L119.7,34.208 L119.7,42 L117.812,42 L117.812,34.208 Z M117.588,31.712 C117.588,31.370665 117.689332,31.1013343 117.892,30.904 C118.094668,30.7066657 118.382665,30.608 118.756,30.608 C119.118668,30.608 119.403999,30.7066657 119.612,30.904 C119.820001,31.1013343 119.924,31.370665 119.924,31.712 C119.924,32.053335 119.820001,32.3226657 119.612,32.52 C119.403999,32.7173343 119.118668,32.816 118.756,32.816 C118.382665,32.816 118.094668,32.7173343 117.892,32.52 C117.689332,32.3226657 117.588,32.053335 117.588,31.712 L117.588,31.712 Z M123.956,39.632 C123.977333,40.3680037 124.515995,40.736 125.572,40.736 C125.977335,40.736 126.310665,40.6480009 126.572,40.472 C126.833335,40.2959991 126.964,40.0906678 126.964,39.856 C126.964,39.6213322 126.884001,39.4400006 126.724,39.312 C126.563999,39.1839994 126.313335,39.0666672 125.972,38.96 L124.276,38.352 C123.017327,37.9146645 122.388,37.200005 122.388,36.208 C122.388,35.5466634 122.683997,35.016002 123.276,34.616 C123.868003,34.215998 124.662662,34.016 125.66,34.016 C126.657338,34.016 127.425331,34.2346645 127.964,34.672 C128.502669,35.1093355 128.782667,35.6586634 128.804,36.32 L127.028,36.32 C127.006667,36.0639987 126.884001,35.8613341 126.66,35.712 C126.435999,35.5626659 126.116002,35.488 125.7,35.488 C125.283998,35.488 124.961334,35.5706658 124.732,35.736 C124.502666,35.9013342 124.388,36.0906656 124.388,36.304 C124.388,36.6773352 124.702664,36.9546658 125.332,37.136 L127.172,37.824 C127.780003,38.0266677 128.246665,38.2853318 128.572,38.6 C128.897335,38.9146682 129.06,39.3226642 129.06,39.824 C129.06,40.4640032 128.756003,41.0186643 128.148,41.488 C127.518664,41.9786691 126.686672,42.224 125.652,42.224 C124.617328,42.224 123.785336,41.9973356 123.156,41.544 C122.526664,41.0906644 122.206667,40.4533374 122.196,39.632 L123.956,39.632 Z M136.34,34.224 L138.212,39.824 L139.844,34.224 L141.764,34.224 L138.788,43.408 C138.478665,44.3360046 138.102669,45.0026646 137.66,45.408 C137.217331,45.8133354 136.65467,46.016 135.972,46.016 C135.278663,46.016 134.585337,45.845335 133.892,45.504 L133.892,43.84 C134.446669,44.1920018 135.006664,44.368 135.572,44.368 C135.945335,44.368 136.251999,44.2186682 136.492,43.92 C136.732001,43.6213318 136.926666,43.2320024 137.076,42.752 L137.316,42 L134.196,34.224 L136.34,34.224 Z M146.5,34.016 C147.022669,34.016 147.513331,34.0986658 147.972,34.264 C148.430669,34.4293342 148.825332,34.682665 149.156,35.024 C149.892004,35.7706704 150.26,36.8053267 150.26,38.128 C150.26,39.4293398 149.892004,40.4533296 149.156,41.2 C148.494663,41.8826701 147.609339,42.224 146.5,42.224 C145.390661,42.224 144.49467,41.8826701 143.812,41.2 C143.075996,40.4639963 142.708,39.4400066 142.708,38.128 C142.708,36.79466 143.075996,35.7600037 143.812,35.024 C144.484003,34.3519966 145.379994,34.016 146.5,34.016 L146.5,34.016 Z M147.892,36.264 C147.571998,35.8533313 147.12667,35.648 146.556,35.648 C145.98533,35.648 145.518668,35.8533313 145.156,36.264 C144.793332,36.6746687 144.612,37.2906626 144.612,38.112 C144.612,38.9333374 144.774665,39.5493313 145.1,39.96 C145.425335,40.3706687 145.870664,40.576 146.436,40.576 C147.001336,40.576 147.465332,40.3706687 147.828,39.96 C148.190668,39.5493313 148.372,38.9333374 148.372,38.112 C148.372,37.2906626 148.212002,36.6746687 147.892,36.264 L147.892,36.264 Z M157.668,40.592 C157.177331,41.6266718 156.388005,42.144 155.3,42.144 C153.923993,42.144 153.017336,41.6053387 152.58,40.528 C152.419999,40.1546648 152.34,39.701336 152.34,39.168 L152.34,34.208 L154.228,34.208 L154.228,38.976 C154.228,39.4880026 154.350665,39.8693321 154.596,40.12 C154.841335,40.3706679 155.142665,40.496 155.5,40.496 C155.857335,40.496 156.158665,40.4453338 156.404,40.344 C156.649335,40.2426662 156.862666,40.0906677 157.044,39.888 C157.438669,39.429331 157.646667,38.8160038 157.668,38.048 L157.668,34.208 L159.556,34.208 L159.556,42 L157.668,42 L157.668,40.592 Z M164.42,35.76 C164.889336,34.6399944 165.593329,34.08 166.532,34.08 C166.713334,34.08 166.942665,34.117333 167.22,34.192 L167.188,36.08 C166.889332,36.0159997 166.596001,35.984 166.308,35.984 C165.049327,35.984 164.42,36.8533246 164.42,38.592 L164.42,42 L162.532,42 L162.532,34.208 L164.42,34.208 L164.42,35.76 Z M172.388,34.224 L173.54,34.224 L173.54,33.312 C173.54,32.511996 173.774664,31.8986688 174.244,31.472 C174.670669,31.0879981 175.22533,30.896 175.908,30.896 C176.345336,30.896 176.883997,30.9599994 177.524,31.088 L177.156,32.544 C176.857332,32.4373328 176.588001,32.384 176.348,32.384 C176.107999,32.384 175.897334,32.450666 175.716,32.584 C175.534666,32.717334 175.444,32.9653315 175.444,33.328 L175.444,34.224 L176.868,34.224 L176.868,35.488 L175.444,35.488 L175.444,42 L173.54,42 L173.54,35.488 L172.388,35.488 L172.388,34.224 Z M181.652,37.456 C182.27067,37.456 182.985329,37.5573323 183.796,37.76 L183.796,36.992 C183.796,36.4479973 183.686668,36.0453346 183.468,35.784 C183.249332,35.5226654 182.892002,35.392 182.396,35.392 C181.899998,35.392 181.518668,35.4906657 181.252,35.688 C180.985332,35.8853343 180.852,36.1653315 180.852,36.528 L178.788,36.528 C178.788,35.6426622 179.099997,35.0026686 179.724,34.608 C180.348003,34.2133314 181.219994,34.016 182.34,34.016 C183.940008,34.016 184.974664,34.5759944 185.444,35.696 C185.604001,36.0800019 185.684,36.5333307 185.684,37.056 L185.684,42 L184.036,42 L183.892,40.96 C183.390664,41.8026709 182.622672,42.224 181.588,42.224 C180.585328,42.224 179.806669,41.9786691 179.252,41.488 C178.739997,41.0186643 178.484,40.4240036 178.484,39.704 C178.484,38.9839964 178.766664,38.4293353 179.332,38.04 C179.897336,37.6506647 180.670662,37.456 181.652,37.456 L181.652,37.456 Z M183.796,38.96 C183.166664,38.7893325 182.580003,38.704 182.036,38.704 C181.011995,38.704 180.5,39.0453299 180.5,39.728 C180.5,40.0160014 180.617332,40.263999 180.852,40.472 C181.086668,40.680001 181.462664,40.784 181.98,40.784 C182.497336,40.784 182.923998,40.6106684 183.26,40.264 C183.596002,39.9173316 183.774667,39.4826693 183.796,38.96 L183.796,38.96 Z M189.316,34.224 L191.092,40.128 L192.884,34.224 L195.06,34.224 L192.164,42 L190.036,42 L187.14,34.224 L189.316,34.224 Z M199.796,34.016 C200.318669,34.016 200.809331,34.0986658 201.268,34.264 C201.726669,34.4293342 202.121332,34.682665 202.452,35.024 C203.188004,35.7706704 203.556,36.8053267 203.556,38.128 C203.556,39.4293398 203.188004,40.4533296 202.452,41.2 C201.790663,41.8826701 200.905339,42.224 199.796,42.224 C198.686661,42.224 197.79067,41.8826701 197.108,41.2 C196.371996,40.4639963 196.004,39.4400066 196.004,38.128 C196.004,36.79466 196.371996,35.7600037 197.108,35.024 C197.780003,34.3519966 198.675994,34.016 199.796,34.016 L199.796,34.016 Z M201.188,36.264 C200.867998,35.8533313 200.42267,35.648 199.852,35.648 C199.28133,35.648 198.814668,35.8533313 198.452,36.264 C198.089332,36.6746687 197.908,37.2906626 197.908,38.112 C197.908,38.9333374 198.070665,39.5493313 198.396,39.96 C198.721335,40.3706687 199.166664,40.576 199.732,40.576 C200.297336,40.576 200.761332,40.3706687 201.124,39.96 C201.486668,39.5493313 201.668,38.9333374 201.668,38.112 C201.668,37.2906626 201.508002,36.6746687 201.188,36.264 L201.188,36.264 Z M210.964,40.592 C210.473331,41.6266718 209.684005,42.144 208.596,42.144 C207.219993,42.144 206.313336,41.6053387 205.876,40.528 C205.715999,40.1546648 205.636,39.701336 205.636,39.168 L205.636,34.208 L207.524,34.208 L207.524,38.976 C207.524,39.4880026 207.646665,39.8693321 207.892,40.12 C208.137335,40.3706679 208.438665,40.496 208.796,40.496 C209.153335,40.496 209.454665,40.4453338 209.7,40.344 C209.945335,40.2426662 210.158666,40.0906677 210.34,39.888 C210.734669,39.429331 210.942667,38.8160038 210.964,38.048 L210.964,34.208 L212.852,34.208 L212.852,42 L210.964,42 L210.964,40.592 Z M217.716,35.76 C218.185336,34.6399944 218.889329,34.08 219.828,34.08 C220.009334,34.08 220.238665,34.117333 220.516,34.192 L220.484,36.08 C220.185332,36.0159997 219.892001,35.984 219.604,35.984 C218.345327,35.984 217.716,36.8533246 217.716,38.592 L217.716,42 L215.828,42 L215.828,34.208 L217.716,34.208 L217.716,35.76 Z M222.644,34.208 L224.532,34.208 L224.532,42 L222.644,42 L222.644,34.208 Z M222.42,31.712 C222.42,31.370665 222.521332,31.1013343 222.724,30.904 C222.926668,30.7066657 223.214665,30.608 223.588,30.608 C223.950668,30.608 224.235999,30.7066657 224.444,30.904 C224.652001,31.1013343 224.756,31.370665 224.756,31.712 C224.756,32.053335 224.652001,32.3226657 224.444,32.52 C224.235999,32.7173343 223.950668,32.816 223.588,32.816 C223.214665,32.816 222.926668,32.7173343 222.724,32.52 C222.521332,32.3226657 222.42,32.053335 222.42,31.712 L222.42,31.712 Z M232.116,41.808 C231.411996,42.0853347 230.857335,42.224 230.452,42.224 C230.046665,42.224 229.692002,42.1760005 229.388,42.08 C229.083998,41.9839995 228.814668,41.840001 228.58,41.648 C228.089331,41.2106645 227.844,40.6080038 227.844,39.84 L227.844,35.488 L226.756,35.488 L226.756,34.224 L227.844,34.224 L227.844,32.176 L229.732,32.176 L229.732,34.224 L231.844,34.224 L231.844,35.488 L229.732,35.488 L229.732,39.776 C229.732,40.4160032 230.035997,40.736 230.644,40.736 C230.953335,40.736 231.353331,40.6506675 231.844,40.48 L232.116,41.808 Z M240.076,36.336 C240.209334,36.7840022 240.276,37.1946648 240.276,37.568 C240.276,37.9413352 240.254667,38.2773318 240.212,38.576 L235.188,38.576 C235.209333,39.2053365 235.363999,39.7173314 235.652,40.112 C235.940001,40.5066686 236.37733,40.704 236.964,40.704 C237.742671,40.704 238.206666,40.3626701 238.356,39.68 L240.26,39.68 C240.131999,40.4586706 239.77467,41.0719978 239.188,41.52 C238.579997,41.9893357 237.838671,42.224 236.964,42.224 C235.939995,42.224 235.081337,41.8506704 234.388,41.104 C233.67333,40.3253294 233.316,39.3280061 233.316,38.112 C233.316,36.8639938 233.67333,35.8613371 234.388,35.104 C235.07067,34.378663 235.929328,34.016 236.964,34.016 C238.041339,34.016 238.878664,34.3946629 239.476,35.152 C239.742668,35.493335 239.942666,35.8879978 240.076,36.336 L240.076,36.336 Z M236.98,35.52 C236.446664,35.52 236.030668,35.6933316 235.732,36.04 C235.433332,36.3866684 235.257334,36.8319973 235.204,37.376 L238.516,37.376 C238.516,36.5333291 238.249336,35.9680014 237.716,35.68 C237.513332,35.5733328 237.268001,35.52 236.98,35.52 L236.98,35.52 Z M247.636,39.632 C247.657333,40.3680037 248.195995,40.736 249.252,40.736 C249.657335,40.736 249.990665,40.6480009 250.252,40.472 C250.513335,40.2959991 250.644,40.0906678 250.644,39.856 C250.644,39.6213322 250.564001,39.4400006 250.404,39.312 C250.243999,39.1839994 249.993335,39.0666672 249.652,38.96 L247.956,38.352 C246.697327,37.9146645 246.068,37.200005 246.068,36.208 C246.068,35.5466634 246.363997,35.016002 246.956,34.616 C247.548003,34.215998 248.342662,34.016 249.34,34.016 C250.337338,34.016 251.105331,34.2346645 251.644,34.672 C252.182669,35.1093355 252.462667,35.6586634 252.484,36.32 L250.708,36.32 C250.686667,36.0639987 250.564001,35.8613341 250.34,35.712 C250.115999,35.5626659 249.796002,35.488 249.38,35.488 C248.963998,35.488 248.641334,35.5706658 248.412,35.736 C248.182666,35.9013342 248.068,36.0906656 248.068,36.304 C248.068,36.6773352 248.382664,36.9546658 249.012,37.136 L250.852,37.824 C251.460003,38.0266677 251.926665,38.2853318 252.252,38.6 C252.577335,38.9146682 252.74,39.3226642 252.74,39.824 C252.74,40.4640032 252.436003,41.0186643 251.828,41.488 C251.198664,41.9786691 250.366672,42.224 249.332,42.224 C248.297328,42.224 247.465336,41.9973356 246.836,41.544 C246.206664,41.0906644 245.886667,40.4533374 245.876,39.632 L247.636,39.632 Z M258.068,34.016 C258.590669,34.016 259.081331,34.0986658 259.54,34.264 C259.998669,34.4293342 260.393332,34.682665 260.724,35.024 C261.460004,35.7706704 261.828,36.8053267 261.828,38.128 C261.828,39.4293398 261.460004,40.4533296 260.724,41.2 C260.062663,41.8826701 259.177339,42.224 258.068,42.224 C256.958661,42.224 256.06267,41.8826701 255.38,41.2 C254.643996,40.4639963 254.276,39.4400066 254.276,38.128 C254.276,36.79466 254.643996,35.7600037 255.38,35.024 C256.052003,34.3519966 256.947994,34.016 258.068,34.016 L258.068,34.016 Z M259.46,36.264 C259.139998,35.8533313 258.69467,35.648 258.124,35.648 C257.55333,35.648 257.086668,35.8533313 256.724,36.264 C256.361332,36.6746687 256.18,37.2906626 256.18,38.112 C256.18,38.9333374 256.342665,39.5493313 256.668,39.96 C256.993335,40.3706687 257.438664,40.576 258.004,40.576 C258.569336,40.576 259.033332,40.3706687 259.396,39.96 C259.758668,39.5493313 259.94,38.9333374 259.94,38.112 C259.94,37.2906626 259.780002,36.6746687 259.46,36.264 L259.46,36.264 Z M263.22,34.224 L264.372,34.224 L264.372,33.312 C264.372,32.511996 264.606664,31.8986688 265.076,31.472 C265.502669,31.0879981 266.05733,30.896 266.74,30.896 C267.177336,30.896 267.715997,30.9599994 268.356,31.088 L267.988,32.544 C267.689332,32.4373328 267.420001,32.384 267.18,32.384 C266.939999,32.384 266.729334,32.450666 266.548,32.584 C266.366666,32.717334 266.276,32.9653315 266.276,33.328 L266.276,34.224 L267.7,34.224 L267.7,35.488 L266.276,35.488 L266.276,42 L264.372,42 L264.372,35.488 L263.22,35.488 L263.22,34.224 Z M274.308,41.808 C273.603996,42.0853347 273.049335,42.224 272.644,42.224 C272.238665,42.224 271.884002,42.1760005 271.58,42.08 C271.275998,41.9839995 271.006668,41.840001 270.772,41.648 C270.281331,41.2106645 270.036,40.6080038 270.036,39.84 L270.036,35.488 L268.948,35.488 L268.948,34.224 L270.036,34.224 L270.036,32.176 L271.924,32.176 L271.924,34.224 L274.036,34.224 L274.036,35.488 L271.924,35.488 L271.924,39.776 C271.924,40.4160032 272.227997,40.736 272.836,40.736 C273.145335,40.736 273.545331,40.6506675 274.036,40.48 L274.308,41.808 Z M285.364,40.8 C284.883998,41.7493381 284.148005,42.224 283.156,42.224 C282.163995,42.224 281.332003,41.8453371 280.66,41.088 C279.966663,40.2986627 279.62,39.2960061 279.62,38.08 C279.62,36.8639939 279.950663,35.8773371 280.612,35.12 C281.26267,34.3839963 282.073328,34.016 283.044,34.016 C284.014672,34.016 284.745331,34.4053294 285.236,35.184 L285.236,31.024 L287.14,31.024 L287.14,42 L285.588,42 L285.364,40.8 Z M282.06,36.36 C281.702665,36.7920022 281.524,37.370663 281.524,38.096 C281.524,38.821337 281.705332,39.4053311 282.068,39.848 C282.430668,40.2906689 282.889331,40.512 283.444,40.512 C283.902669,40.512 284.313332,40.3306685 284.676,39.968 C285.049335,39.5946648 285.236,39.1253362 285.236,38.56 L285.236,37.552 C285.214667,36.9973306 285.028002,36.5440018 284.676,36.192 C284.355998,35.8719984 283.929336,35.712 283.396,35.712 C282.862664,35.712 282.417335,35.9279978 282.06,36.36 L282.06,36.36 Z M292.004,35.76 C292.473336,34.6399944 293.177329,34.08 294.116,34.08 C294.297334,34.08 294.526665,34.117333 294.804,34.192 L294.772,36.08 C294.473332,36.0159997 294.180001,35.984 293.892,35.984 C292.633327,35.984 292.004,36.8533246 292.004,38.592 L292.004,42 L290.116,42 L290.116,34.208 L292.004,34.208 L292.004,35.76 Z M296.932,34.208 L298.82,34.208 L298.82,42 L296.932,42 L296.932,34.208 Z M296.708,31.712 C296.708,31.370665 296.809332,31.1013343 297.012,30.904 C297.214668,30.7066657 297.502665,30.608 297.876,30.608 C298.238668,30.608 298.523999,30.7066657 298.732,30.904 C298.940001,31.1013343 299.044,31.370665 299.044,31.712 C299.044,32.053335 298.940001,32.3226657 298.732,32.52 C298.523999,32.7173343 298.238668,32.816 297.876,32.816 C297.502665,32.816 297.214668,32.7173343 297.012,32.52 C296.809332,32.3226657 296.708,32.053335 296.708,31.712 L296.708,31.712 Z M303.876,35.568 C304.388003,34.5333282 305.209328,34.016 306.34,34.016 C307.300005,34.016 308.022664,34.3306635 308.508,34.96 C308.993336,35.5893365 309.236,36.4213282 309.236,37.456 L309.236,42 L307.348,42 L307.348,37.456 C307.348,36.8799971 307.209335,36.4453348 306.932,36.152 C306.654665,35.8586652 306.265336,35.712 305.764,35.712 C305.262664,35.712 304.833335,35.9359978 304.476,36.384 C304.118665,36.8320022 303.929333,37.5039955 303.908,38.4 L303.908,42 L302.02,42 L302.02,34.224 L303.668,34.224 L303.876,35.568 Z M314.74,38.208 L313.876,38.928 L313.876,42 L311.988,42 L311.988,31.024 L313.876,31.024 L313.876,36.96 L316.948,34.224 L319.508,34.224 L316.068,37.104 L319.7,42 L317.396,42 L314.74,38.208 Z M327.46,34.304 C327.46,34.8693362 327.321335,35.3413314 327.044,35.72 C326.766665,36.0986686 326.329336,36.4373318 325.732,36.736 C325.230664,36.9920013 324.902667,37.2106658 324.748,37.392 C324.593333,37.5733342 324.494667,37.7413326 324.452,37.896 C324.409333,38.0506674 324.388,38.2293323 324.388,38.432 L324.388,38.896 L322.5,38.896 L322.5,38.256 C322.5,37.2959952 322.787997,36.6133354 323.364,36.208 C323.566668,36.0586659 323.865331,35.8826677 324.26,35.68 C324.654669,35.4773323 324.939999,35.272001 325.116,35.064 C325.292001,34.855999 325.38,34.589335 325.38,34.264 C325.38,33.938665 325.246668,33.6666678 324.98,33.448 C324.713332,33.2293322 324.318669,33.12 323.796,33.12 C323.273331,33.12 322.862668,33.2453321 322.564,33.496 C322.265332,33.7466679 322.094667,34.0746646 322.052,34.48 L320.084,34.48 C320.137334,33.5519954 320.478664,32.8080028 321.108,32.248 C321.737336,31.6879972 322.619994,31.408 323.756,31.408 C324.892006,31.408 325.79333,31.6853306 326.46,32.24 C327.12667,32.7946694 327.46,33.4826626 327.46,34.304 L327.46,34.304 Z M322.54,40.064 C322.780001,39.8293322 323.094665,39.712 323.484,39.712 C323.873335,39.712 324.195999,39.8293322 324.452,40.064 C324.708001,40.2986678 324.836,40.5973315 324.836,40.96 C324.836,41.3226685 324.708001,41.6239988 324.452,41.864 C324.195999,42.1040012 323.873335,42.224 323.484,42.224 C323.094665,42.224 322.780001,42.1040012 322.54,41.864 C322.299999,41.6239988 322.18,41.3226685 322.18,40.96 C322.18,40.5973315 322.299999,40.2986678 322.54,40.064 L322.54,40.064 Z" id="What-is-your-favouri" fill="#4E4E4E" sketch:type="MSShapeGroup"></path>
            <path d="M48.5895625,101.616 L50.4775625,101.616 L50.4775625,112 L48.5895625,112 L48.5895625,101.616 Z M55.3415625,105.76 C55.8108982,104.639994 56.5148911,104.08 57.4535625,104.08 C57.6348967,104.08 57.8642278,104.117333 58.1415625,104.192 L58.1095625,106.08 C57.8108943,106.016 57.5175639,105.984 57.2295625,105.984 C55.9708895,105.984 55.3415625,106.853325 55.3415625,108.592 L55.3415625,112 L53.4535625,112 L53.4535625,104.208 L55.3415625,104.208 L55.3415625,105.76 Z M61.9655625,105.568 C62.4775651,104.533328 63.2988902,104.016 64.4295625,104.016 C65.3895673,104.016 66.1122267,104.330664 66.5975625,104.96 C67.0828983,105.589336 67.3255625,106.421328 67.3255625,107.456 L67.3255625,112 L65.4375625,112 L65.4375625,107.456 C65.4375625,106.879997 65.2988972,106.445335 65.0215625,106.152 C64.7442278,105.858665 64.3548983,105.712 63.8535625,105.712 C63.3522267,105.712 62.9228976,105.935998 62.5655625,106.384 C62.2082274,106.832002 62.0188959,107.503996 61.9975625,108.4 L61.9975625,112 L60.1095625,112 L60.1095625,104.224 L61.7575625,104.224 L61.9655625,105.568 Z M69.3255625,106.352 L73.8215625,106.352 L73.8215625,108 L69.3255625,108 L69.3255625,106.352 Z M83.5655625,108.08 C83.5655625,109.296006 83.2188993,110.298663 82.5255625,111.088 C81.8535591,111.845337 81.0162342,112.224 80.0135625,112.224 C79.5335601,112.224 79.0935645,112.096001 78.6935625,111.84 C78.2935605,111.583999 77.9762303,111.189336 77.7415625,110.656 L77.2775625,112 L76.0455625,112 L76.0455625,101.024 L77.9335625,101.024 L77.9335625,105.2 C78.4242316,104.410663 79.1575576,104.016 80.1335625,104.016 C81.1095674,104.016 81.9255592,104.38933 82.5815625,105.136 C83.2375658,105.88267 83.5655625,106.863994 83.5655625,108.08 L83.5655625,108.08 Z M77.9335625,107.632 L77.9335625,108.656 C77.9548959,109.200003 78.1522273,109.647998 78.5255625,110 C78.8775643,110.341335 79.3068933,110.512 79.8135625,110.512 C80.3202317,110.512 80.754894,110.290669 81.1175625,109.848 C81.480231,109.405331 81.6615625,108.821337 81.6615625,108.096 C81.6615625,107.370663 81.4828976,106.792002 81.1255625,106.36 C80.7682274,105.927998 80.3228985,105.712 79.7895625,105.712 C79.2562265,105.712 78.8135643,105.887998 78.4615625,106.24 C78.1095607,106.592002 77.9335625,107.055997 77.9335625,107.632 L77.9335625,107.632 Z M87.7575625,105.76 C88.2268982,104.639994 88.9308911,104.08 89.8695625,104.08 C90.0508967,104.08 90.2802278,104.117333 90.5575625,104.192 L90.5255625,106.08 C90.2268943,106.016 89.9335639,105.984 89.6455625,105.984 C88.3868895,105.984 87.7575625,106.853325 87.7575625,108.592 L87.7575625,112 L85.8695625,112 L85.8695625,104.208 L87.7575625,104.208 L87.7575625,105.76 Z M97.6935625,110.592 C97.2028934,111.626672 96.4135679,112.144 95.3255625,112.144 C93.9495556,112.144 93.042898,111.605339 92.6055625,110.528 C92.4455617,110.154665 92.3655625,109.701336 92.3655625,109.168 L92.3655625,104.208 L94.2535625,104.208 L94.2535625,108.976 C94.2535625,109.488003 94.3762279,109.869332 94.6215625,110.12 C94.8668971,110.370668 95.1682274,110.496 95.5255625,110.496 C95.8828976,110.496 96.1842279,110.445334 96.4295625,110.344 C96.6748971,110.242666 96.8882283,110.090668 97.0695625,109.888 C97.4642311,109.429331 97.6722291,108.816004 97.6935625,108.048 L97.6935625,104.208 L99.5815625,104.208 L99.5815625,112 L97.6935625,112 L97.6935625,110.592 Z" id="Irn-bru" fill="#FFFFFF" sketch:type="MSShapeGroup"></path>
            <path d="M48.5895625,241.616 L55.1335625,241.616 L55.1335625,243.248 L50.4775625,243.248 L50.4775625,245.984 L54.7335625,245.984 L54.7335625,247.6 L50.4775625,247.6 L50.4775625,252 L48.5895625,252 L48.5895625,241.616 Z M59.5175625,247.456 C60.1362323,247.456 60.8508918,247.557332 61.6615625,247.76 L61.6615625,246.992 C61.6615625,246.447997 61.5522303,246.045335 61.3335625,245.784 C61.1148947,245.522665 60.757565,245.392 60.2615625,245.392 C59.76556,245.392 59.3842305,245.490666 59.1175625,245.688 C58.8508945,245.885334 58.7175625,246.165332 58.7175625,246.528 L56.6535625,246.528 C56.6535625,245.642662 56.9655594,245.002669 57.5895625,244.608 C58.2135656,244.213331 59.0855569,244.016 60.2055625,244.016 C61.8055705,244.016 62.8402268,244.575994 63.3095625,245.696 C63.4695633,246.080002 63.5495625,246.533331 63.5495625,247.056 L63.5495625,252 L61.9015625,252 L61.7575625,250.96 C61.2562267,251.802671 60.4882343,252.224 59.4535625,252.224 C58.4508908,252.224 57.6722319,251.978669 57.1175625,251.488 C56.6055599,251.018664 56.3495625,250.424004 56.3495625,249.704 C56.3495625,248.983996 56.6322263,248.429335 57.1975625,248.04 C57.7628987,247.650665 58.5362243,247.456 59.5175625,247.456 L59.5175625,247.456 Z M61.6615625,248.96 C61.032226,248.789332 60.4455652,248.704 59.9015625,248.704 C58.8775574,248.704 58.3655625,249.04533 58.3655625,249.728 C58.3655625,250.016001 58.4828947,250.263999 58.7175625,250.472 C58.9522303,250.680001 59.3282266,250.784 59.8455625,250.784 C60.3628984,250.784 60.7895608,250.610668 61.1255625,250.264 C61.4615642,249.917332 61.6402291,249.482669 61.6615625,248.96 L61.6615625,248.96 Z M68.1575625,245.568 C68.6695651,244.533328 69.4908902,244.016 70.6215625,244.016 C71.5815673,244.016 72.3042267,244.330664 72.7895625,244.96 C73.2748983,245.589336 73.5175625,246.421328 73.5175625,247.456 L73.5175625,252 L71.6295625,252 L71.6295625,247.456 C71.6295625,246.879997 71.4908972,246.445335 71.2135625,246.152 C70.9362278,245.858665 70.5468983,245.712 70.0455625,245.712 C69.5442267,245.712 69.1148976,245.935998 68.7575625,246.384 C68.4002274,246.832002 68.2108959,247.503996 68.1895625,248.4 L68.1895625,252 L66.3015625,252 L66.3015625,244.224 L67.9495625,244.224 L68.1575625,245.568 Z M80.6535625,251.808 C79.949559,252.085335 79.3948979,252.224 78.9895625,252.224 C78.5842271,252.224 78.229564,252.176 77.9255625,252.08 C77.621561,251.984 77.3522303,251.840001 77.1175625,251.648 C76.6268934,251.210664 76.3815625,250.608004 76.3815625,249.84 L76.3815625,245.488 L75.2935625,245.488 L75.2935625,244.224 L76.3815625,244.224 L76.3815625,242.176 L78.2695625,242.176 L78.2695625,244.224 L80.3815625,244.224 L80.3815625,245.488 L78.2695625,245.488 L78.2695625,249.776 C78.2695625,250.416003 78.5735595,250.736 79.1815625,250.736 C79.4908974,250.736 79.8908934,250.650668 80.3815625,250.48 L80.6535625,251.808 Z M85.1495625,247.456 C85.7682323,247.456 86.4828918,247.557332 87.2935625,247.76 L87.2935625,246.992 C87.2935625,246.447997 87.1842303,246.045335 86.9655625,245.784 C86.7468947,245.522665 86.389565,245.392 85.8935625,245.392 C85.39756,245.392 85.0162305,245.490666 84.7495625,245.688 C84.4828945,245.885334 84.3495625,246.165332 84.3495625,246.528 L82.2855625,246.528 C82.2855625,245.642662 82.5975594,245.002669 83.2215625,244.608 C83.8455656,244.213331 84.7175569,244.016 85.8375625,244.016 C87.4375705,244.016 88.4722268,244.575994 88.9415625,245.696 C89.1015633,246.080002 89.1815625,246.533331 89.1815625,247.056 L89.1815625,252 L87.5335625,252 L87.3895625,250.96 C86.8882267,251.802671 86.1202343,252.224 85.0855625,252.224 C84.0828908,252.224 83.3042319,251.978669 82.7495625,251.488 C82.2375599,251.018664 81.9815625,250.424004 81.9815625,249.704 C81.9815625,248.983996 82.2642263,248.429335 82.8295625,248.04 C83.3948987,247.650665 84.1682243,247.456 85.1495625,247.456 L85.1495625,247.456 Z M87.2935625,248.96 C86.664226,248.789332 86.0775652,248.704 85.5335625,248.704 C84.5095574,248.704 83.9975625,249.04533 83.9975625,249.728 C83.9975625,250.016001 84.1148947,250.263999 84.3495625,250.472 C84.5842303,250.680001 84.9602266,250.784 85.4775625,250.784 C85.9948984,250.784 86.4215608,250.610668 86.7575625,250.264 C87.0935642,249.917332 87.2722291,249.482669 87.2935625,248.96 L87.2935625,248.96 Z" id="Fanta" fill="#FFFFFF" sketch:type="MSShapeGroup"></path>
        </g>
    </g>
</svg>